<svg xmlns="http://www.w3.org/2000/svg" viewBox="0 0 400 400" width="400" height="400">
  <rect width="400" height="400" rx="60" fill="#0a0612"/>
  <polygon points="218.0,143.6 92.7,190.6 103.5,318.8 235.6,351.2 306.3,242.8" fill="rgb(62,35,100)" stroke="#d4b8f0" stroke-width="4.5" stroke-linejoin="round" opacity="1.0"/>
  <polygon points="38.5,116.4 92.7,190.6 218.0,143.6 241.3,40.4 130.3,23.7" fill="rgb(68,39,108)" stroke="#d4b8f0" stroke-width="4.5" stroke-linejoin="round" opacity="1.0"/>
  <polygon points="218.0,143.6 306.3,242.8 384.2,201.1 344.0,76.0 241.3,40.4" fill="rgb(69,39,110)" stroke="#d4b8f0" stroke-width="4.5" stroke-linejoin="round" opacity="1.0"/>
  <polygon points="38.5,116.4 92.7,190.6 103.5,318.8 56.0,324.0 15.8,198.9" fill="rgb(76,44,120)" stroke="#d4b8f0" stroke-width="4.5" stroke-linejoin="round" opacity="1.0"/>
  <polygon points="235.6,351.2 306.3,242.8 384.2,201.1 361.5,283.6 269.7,376.3" fill="rgb(78,44,122)" stroke="#d4b8f0" stroke-width="4.5" stroke-linejoin="round" opacity="1.0"/>
  <polygon points="56.0,324.0 103.5,318.8 235.6,351.2 269.7,376.3 158.7,359.6" fill="rgb(82,48,128)" stroke="#d4b8f0" stroke-width="4.5" stroke-linejoin="round" opacity="1.0"/>
  <polygon points="164.4,48.8 296.5,81.2 344.0,76.0 241.3,40.4 130.3,23.7" fill="rgb(88,52,136)" stroke="#d4b8f0" stroke-width="4.5" stroke-linejoin="round" opacity="1.0"/>
  <polygon points="38.5,116.4 15.8,198.9 93.7,157.2 164.4,48.8 130.3,23.7" fill="rgb(94,56,144)" stroke="#d4b8f0" stroke-width="4.5" stroke-linejoin="round" opacity="1.0"/>
  <polygon points="344.0,76.0 384.2,201.1 361.5,283.6 307.3,209.4 296.5,81.2" fill="rgb(95,56,145)" stroke="#d4b8f0" stroke-width="4.5" stroke-linejoin="round" opacity="1.0"/>
  <polygon points="56.0,324.0 15.8,198.9 93.7,157.2 182.0,256.4 158.7,359.6" fill="rgb(102,62,155)" stroke="#d4b8f0" stroke-width="4.5" stroke-linejoin="round" opacity="1.0"/>
  <polygon points="182.0,256.4 307.3,209.4 361.5,283.6 269.7,376.3 158.7,359.6" fill="rgb(103,62,156)" stroke="#d4b8f0" stroke-width="4.5" stroke-linejoin="round" opacity="1.0"/>
  <polygon points="164.4,48.8 296.5,81.2 307.3,209.4 182.0,256.4 93.7,157.2" fill="rgb(110,66,165)" stroke="#d4b8f0" stroke-width="4.5" stroke-linejoin="round" opacity="1.0"/>
  <circle cx="164.4" cy="48.8" r="5" fill="#d4b8f0" opacity="1.0"/>
  <circle cx="56.0" cy="324.0" r="5" fill="#d4b8f0" opacity="1.0"/>
  <circle cx="182.0" cy="256.4" r="5" fill="#d4b8f0" opacity="1.0"/>
  <circle cx="361.5" cy="283.6" r="5" fill="#d4b8f0" opacity="1.0"/>
  <circle cx="296.5" cy="81.2" r="5" fill="#d4b8f0" opacity="1.0"/>
  <circle cx="307.3" cy="209.4" r="5" fill="#d4b8f0" opacity="1.0"/>
  <circle cx="158.7" cy="359.6" r="5" fill="#d4b8f0" opacity="1.0"/>
  <circle cx="269.7" cy="376.3" r="5" fill="#d4b8f0" opacity="1.0"/>
  <circle cx="15.8" cy="198.9" r="5" fill="#d4b8f0" opacity="1.0"/>
  <circle cx="93.7" cy="157.2" r="5" fill="#d4b8f0" opacity="1.0"/>
</svg>
